<svg xmlns="http://www.w3.org/2000/svg" xmlns:bx="https://boxy-svg.com" xmlns:svg="http://www.w3.org/2000/svg" xmlns:xlink="http://www.w3.org/1999/xlink" id="svg270" width="762" height="762" version="1.1" viewBox="0 0 762 762" xml:space="preserve"><defs id="defs220"><linearGradient id="linearGradient5535"><stop style="stop-color:#00063b;stop-opacity:1" id="stop5531" offset=".259"/><stop style="stop-color:#004256;stop-opacity:1" id="stop5533" offset="1"/></linearGradient><linearGradient id="linearGradient2809"><stop offset=".113" style="stop-color:#5668ea;stop-opacity:1" id="stop2803"/><stop offset=".608" style="stop-color:#0093b1;stop-opacity:1" id="stop2805"/><stop offset=".944" style="stop-color:#00a29f;stop-opacity:1" id="stop2807"/></linearGradient><linearGradient id="linearGradient938"><stop offset=".113" style="stop-color:#5869eb;stop-opacity:1" id="stop932"/><stop offset=".608" style="stop-color:#0093b1;stop-opacity:1" id="stop934"/><stop offset=".944" style="stop-color:#02a7a4;stop-opacity:1" id="stop936"/></linearGradient><radialGradient id="gradient-2-0" cx="251.179" cy="248.821" r="241.45" gradientTransform="translate(-1.768285,0.589104)" gradientUnits="userSpaceOnUse" xlink:href="#gradient-2"/><linearGradient id="gradient-2"><stop offset=".841" style="stop-color:#fff" id="stop169"/><stop offset="1" style="stop-color:#c9c9c9" id="stop171"/></linearGradient><filter id="drop-shadow-filter-0" width="1.102" height="1.102" x="-.051" y="-.051" bx:preset="drop-shadow 1 0 0 10 0.42 rgba(201,201,201,1)"><feGaussianBlur id="feGaussianBlur174" in="SourceAlpha" stdDeviation="10"/><feOffset id="feOffset176" dx="0" dy="0"/><feComponentTransfer id="feComponentTransfer179" result="offsetblur"><feFuncA id="spread-ctrl" slope=".84" type="linear"/></feComponentTransfer><feFlood id="feFlood181" flood-color="rgba(201,201,201,1)"/><feComposite id="feComposite183" in2="offsetblur" operator="in"/><feMerge id="feMerge189"><feMergeNode id="feMergeNode185"/><feMergeNode id="feMergeNode187" in="SourceGraphic"/></feMerge></filter><linearGradient id="gradient-4-3" x1="47.146" x2="47.146" y1="18.044" y2="75.354" gradientUnits="userSpaceOnUse" xlink:href="#gradient-4"/><linearGradient id="gradient-4"><stop offset=".113" style="stop-color:#53f06f" id="stop193"/><stop offset=".608" style="stop-color:#00b156" id="stop195"/><stop offset=".944" style="stop-color:#02a79c" id="stop197"/></linearGradient><filter id="inner-shadow-filter-0" width="1.13" height="1.108" x="-.065" y="-.071" bx:preset="inner-shadow 1 0 0 4 0.5 rgba(0,0,0,0.7)"><feOffset id="feOffset200" dx="0" dy="0"/><feGaussianBlur id="feGaussianBlur202" result="result1" stdDeviation="4"/><feComposite id="feComposite204" in="SourceGraphic" in2="result1" operator="out"/><feComponentTransfer id="feComponentTransfer208" result="choke"><feFuncA id="feFuncA206" slope="1" type="linear"/></feComponentTransfer><feFlood id="feFlood210" flood-color="rgba(0,0,0,0.7)" result="color"/><feComposite id="feComposite212" in="color" in2="choke" operator="in" result="shadow"/><feComposite id="feComposite214" in="shadow" in2="SourceGraphic" operator="over"/></filter><linearGradient id="gradient-4-1" x1="82.026" x2="82.026" y1="144.832" y2="264.462" gradientTransform="translate(7.2213312)" gradientUnits="userSpaceOnUse" xlink:href="#linearGradient2809"/><linearGradient id="gradient-4-2" x1="143.693" x2="143.693" y1="22.804" y2="264.582" gradientUnits="userSpaceOnUse" xlink:href="#linearGradient938"/><linearGradient id="gradient-4-0" x1="205.862" x2="205.862" y1="146.28" y2="265.91" gradientTransform="translate(-7.2213312)" gradientUnits="userSpaceOnUse" xlink:href="#gradient-4"/><filter style="color-interpolation-filters:sRGB" id="filter2000" width="1.685" height="1.685" x="-.343" y="-.343"><feFlood id="feFlood1990" flood-color="#000" flood-opacity="1" result="flood"/><feComposite id="feComposite1992" in="flood" in2="SourceGraphic" operator="out" result="composite1"/><feGaussianBlur id="feGaussianBlur1994" in="composite1" result="blur" stdDeviation="29.981"/><feOffset id="feOffset1996" dx="0" dy="0" result="offset"/><feComposite id="feComposite1998" in="offset" in2="SourceGraphic" operator="atop" result="fbSourceGraphic"/><feColorMatrix id="feColorMatrix2062" in="fbSourceGraphic" result="fbSourceGraphicAlpha" values="0 0 0 -1 0 0 0 0 -1 0 0 0 0 -1 0 0 0 0 1 0"/><feFlood id="feFlood2064" flood-color="#000" flood-opacity="1" in="fbSourceGraphic" result="flood"/><feComposite id="feComposite2066" in="flood" in2="fbSourceGraphic" operator="out" result="composite1"/><feGaussianBlur id="feGaussianBlur2068" in="composite1" result="blur" stdDeviation="28.643"/><feOffset id="feOffset2070" dx="0" dy="0" result="offset"/><feComposite id="feComposite2072" in="offset" in2="fbSourceGraphic" operator="atop" result="fbSourceGraphic"/><feColorMatrix id="feColorMatrix3393" in="fbSourceGraphic" result="fbSourceGraphicAlpha" values="0 0 0 -1 0 0 0 0 -1 0 0 0 0 -1 0 0 0 0 1 0"/><feFlood id="feFlood3395" flood-color="#000" flood-opacity=".353" in="fbSourceGraphic" result="flood"/><feComposite id="feComposite3397" in="flood" in2="fbSourceGraphic" operator="in" result="composite1"/><feGaussianBlur id="feGaussianBlur3399" in="composite1" result="blur" stdDeviation="6.599"/><feOffset id="feOffset3401" dx="0" dy="0" result="offset"/><feComposite id="feComposite3403" in="fbSourceGraphic" in2="offset" operator="over" result="composite2"/></filter><linearGradient id="linearGradient5506" x1="82.026" x2="82.026" y1="144.832" y2="264.462" gradientTransform="translate(117.34662)" gradientUnits="userSpaceOnUse" xlink:href="#linearGradient2809"/><radialGradient id="radialGradient5537" cx="143.694" cy="143.693" r="152.727" fx="143.694" fy="143.693" gradientTransform="matrix(1,0,0,0.8506841,0,21.45565)" gradientUnits="userSpaceOnUse" xlink:href="#linearGradient5535"/></defs><circle style="opacity:1;fill:#242832;fill-opacity:1;stroke:#000;stroke-width:10;stroke-dasharray:none;stroke-opacity:.961795;filter:url(#filter2000)" id="path1157" cx="381.489" cy="381.489" r="235.791"/><g id="g236" style="fill:none;filter:url(#inner-shadow-filter-0)" transform="matrix(1.107829,0,0,1.106267,221.95533,199.03714)"><path d="m 78.642332,155.437 v 98.42 c 0,5.867 4.741,10.605 10.605,10.605 5.854,0 10.604995,-4.738 10.604995,-10.605 v -98.42 c 0,-5.856 -4.750995,-10.605 -10.604995,-10.605 -5.864,0 -10.605,4.744 -10.605,10.605 z" style="fill:none;fill-opacity:1;stroke:url(#gradient-4-1);stroke-width:9.80924px;stroke-linecap:round;stroke-linejoin:round" id="path230"/><path d="m 29.456,264.582 h 23.351 v -116.85 c 0.064,-0.56 0.166,-1.119 0.166,-1.693 0,-50.412 40.69,-91.42 90.698,-91.42 50.002,0 90.692,41.008 90.692,91.42 0,0.771 0.113,1.518 0.228,2.263 v 116.28 h 23.354 c 16.254,0 29.442,-13.64 29.442,-30.469 v -60.936 c 0,-13.878 -8.989,-25.57 -21.261,-29.249 C 264.997,76.957 210.518,22.804 143.676,22.804 76.816,22.804 22.329,76.962 21.211,143.954 8.956,147.638 0,159.32 0,173.187 v 60.926 c 0,16.819 13.187,30.469 29.456,30.469 z" style="fill:url(#radialGradient5537);fill-opacity:1;stroke:url(#gradient-4-2);stroke-width:18.0661;stroke-linecap:round;stroke-linejoin:round;stroke-dasharray:none" id="path232"/><path id="path3079" d="M 49.735541,279.35822 C 23.7214,267.48486 38.122112,248.62719 80.85964,237.45225 c 14.400662,-3.49216 25.08508,-5.12184 43.66659,-4.88901 11.61348,0.23282 24.62053,3.49216 24.62053,3.49216 0,-42.13877 -0.46471,-121.7601 -0.46471,-160.872338 4.6454,0 7.89719,-0.232827 14.40071,-0.232827 0,2.328107 0,4.190613 0,6.053093 0,2.095305 0,3.259358 0.46471,4.656212 4.6454,14.66709 11.14893,20.48736 43.66659,38.41381 41.34392,23.04827 53.42195,36.78411 53.42195,55.17616 -0.46471,17.22802 -30.65954,54.01213 -37.16306,52.61528 9.29075,-13.03741 22.2978,-27.00606 25.54958,-38.64661 4.18085,-14.20147 -7.43263,-34.2232 -26.01414,-44.69971 -14.86522,-8.8468 -50.17016,-16.52957 -59.92547,-16.52957 0,0 -0.46472,84.74317 -0.46472,116.87109 0,5.35464 -9.7553,14.89989 -15.32977,18.15925 -25.54958,15.36551 -75.25519,22.34984 -97.553043,12.33896 z" style="stroke-width:3.28861"/><path d="m 188.76763,155.437 v 98.42 c 0,5.867 4.741,10.605 10.60501,10.605 5.854,0 10.605,-4.738 10.605,-10.605 v -98.42 c 0,-5.856 -4.751,-10.605 -10.605,-10.605 -5.86401,0 -10.60501,4.744 -10.60501,10.605 z" style="fill:none;stroke:url(#linearGradient5506);stroke-width:9.80924px;stroke-linecap:round;stroke-linejoin:round" id="path5502"/></g></svg>